# xmcd CD database file
#
# Track frame offsets:
#	150
#	11275
#	28595
#	42830
#	58910
#	76645
#	92640
#	109385
#	126840
#	140870
#	151952
#	166632
#	183790
#	197245
#	213025
#	231030
#	244540
#	261637
#	272435
#	288665
#
# Disc length: 4067 seconds
#
# Revision: 0
# Processed by: cddbd v1.4PL0 Copyright (c) Steve Scherf et al.
# Submitted via: CDex 1.51
#
DISCID=0f0fe114
DTITLE=Ricky Skaggs - Ricky Skaggs Portrait
DYEAR=1992
DGENRE=Country
TTITLE0=Children Go
TTITLE1=Country Boy
TTITLE2=Highway 40 Blues
TTITLE3=Love's Gonna Get You Someday
TTITLE4=You've Got a Lover
TTITLE5=Lovin' Only Me
TTITLE6=Cajun Moon
TTITLE7=Life's too Long to Live Like This
TTITLE8=If That's the Way You Feel
TTITLE9=You May See me Walkin'
TTITLE10=Heartbroke
TTITLE11=Waitn' for the Sun to Shine
TTITLE12=Crying My Heart Out Over You
TTITLE13=Honey (Open That Door)
TTITLE14=I Won't Let You Down
TTITLE15=I Wouldn't Change You if I Could
TTITLE16=Love Can't Ever Get Better Than This
TTITLE17=Uncle Pen
TTITLE18=Home is Wherever You Are
TTITLE19=Thanks Again
EXTD=YEAR: 1992
EXTT0=
EXTT1=
EXTT2=
EXTT3=
EXTT4=
EXTT5=
EXTT6=
EXTT7=
EXTT8=
EXTT9=
EXTT10=
EXTT11=
EXTT12=
EXTT13=
EXTT14=
EXTT15=
EXTT16=
EXTT17=
EXTT18=
EXTT19=
PLAYORDER=
